mtllib ./100001.mtl
g Cube (3)
v -12.94 -5 27.45
v -12.94 -5 -22.55
v -12.94 5 27.45
v -12.94 5 -22.55
v -13.94 5 27.45
v -13.94 5 -22.55
v -13.94 -5 27.45
v -13.94 -5 -22.55
v -12.94 5 27.45
v -12.94 5 -22.55
v -13.94 5 27.45
v -13.94 5 -22.55
v -13.94 -5 27.45
v -12.94 -5 27.45
v -12.94 -5 -22.55
v -13.94 -5 -22.55
v -12.94 -5 -22.55
v -12.94 5 -22.55
v -13.94 5 -22.55
v -13.94 -5 -22.55
v -13.94 -5 27.45
v -13.94 5 27.45
v -12.94 5 27.45
v -12.94 -5 27.45

vn 1 0 -1.192093E-07
vn 1 0 -1.192093E-07
vn 1 0 -1.192093E-07
vn 1 0 -1.192093E-07
vn 0 1 0
vn 0 1 0
vn -1 0 1.192093E-07
vn -1 0 1.192093E-07
vn 0 1 0
vn 0 1 0
vn -1 0 1.192093E-07
vn -1 0 1.192093E-07
vn 0 -1 0
vn 0 -1 0
vn 0 -1 0
vn 0 -1 0
vn -1.192093E-07 0 -1
vn -1.192093E-07 0 -1
vn -1.192093E-07 0 -1
vn -1.192093E-07 0 -1
vn 1.192093E-07 0 1
vn 1.192093E-07 0 1
vn 1.192093E-07 0 1
vn 1.192093E-07 0 1

vt 0 0
vt 1 0
vt 0 1
vt 1 1
vt 0 1
vt 1 1
vt 0 1
vt 1 1
vt 0 0
vt 1 0
vt 0 0
vt 1 0
vt 0 0
vt 0 1
vt 1 1
vt 1 0
vt 0 0
vt 0 1
vt 1 1
vt 1 0
vt 0 0
vt 0 1
vt 1 1
vt 1 0

usemtl Default-Material
usemap Default-Material
f 3/3/3 1/1/1 4/4/4
f 4/4/4 1/1/1 2/2/2
f 5/5/5 9/9/9 6/6/6
f 6/6/6 9/9/9 10/10/10
f 7/7/7 11/11/11 8/8/8
f 8/8/8 11/11/11 12/12/12
f 14/14/14 13/13/13 15/15/15
f 15/15/15 13/13/13 16/16/16
f 18/18/18 17/17/17 19/19/19
f 19/19/19 17/17/17 20/20/20
f 22/22/22 21/21/21 23/23/23
f 23/23/23 21/21/21 24/24/24
mtllib ./100001.mtl
g Cube (2)
v 12.3 -5 27.45
v 12.3 -5 -22.55
v 12.3 5 27.45
v 12.3 5 -22.55
v 11.3 5 27.45
v 11.3 5 -22.55
v 11.3 -5 27.45
v 11.3 -5 -22.55
v 12.3 5 27.45
v 12.3 5 -22.55
v 11.3 5 27.45
v 11.3 5 -22.55
v 11.3 -5 27.45
v 12.3 -5 27.45
v 12.3 -5 -22.55
v 11.3 -5 -22.55
v 12.3 -5 -22.55
v 12.3 5 -22.55
v 11.3 5 -22.55
v 11.3 -5 -22.55
v 11.3 -5 27.45
v 11.3 5 27.45
v 12.3 5 27.45
v 12.3 -5 27.45

vn 1 0 -1.192093E-07
vn 1 0 -1.192093E-07
vn 1 0 -1.192093E-07
vn 1 0 -1.192093E-07
vn 0 1 0
vn 0 1 0
vn -1 0 1.192093E-07
vn -1 0 1.192093E-07
vn 0 1 0
vn 0 1 0
vn -1 0 1.192093E-07
vn -1 0 1.192093E-07
vn 0 -1 0
vn 0 -1 0
vn 0 -1 0
vn 0 -1 0
vn -1.192093E-07 0 -1
vn -1.192093E-07 0 -1
vn -1.192093E-07 0 -1
vn -1.192093E-07 0 -1
vn 1.192093E-07 0 1
vn 1.192093E-07 0 1
vn 1.192093E-07 0 1
vn 1.192093E-07 0 1

vt 0 0
vt 1 0
vt 0 1
vt 1 1
vt 0 1
vt 1 1
vt 0 1
vt 1 1
vt 0 0
vt 1 0
vt 0 0
vt 1 0
vt 0 0
vt 0 1
vt 1 1
vt 1 0
vt 0 0
vt 0 1
vt 1 1
vt 1 0
vt 0 0
vt 0 1
vt 1 1
vt 1 0

usemtl Default-Material
usemap Default-Material
f 27/27/27 25/25/25 28/28/28
f 28/28/28 25/25/25 26/26/26
f 29/29/29 33/33/33 30/30/30
f 30/30/30 33/33/33 34/34/34
f 31/31/31 35/35/35 32/32/32
f 32/32/32 35/35/35 36/36/36
f 38/38/38 37/37/37 39/39/39
f 39/39/39 37/37/37 40/40/40
f 42/42/42 41/41/41 43/43/43
f 43/43/43 41/41/41 44/44/44
f 46/46/46 45/45/45 47/47/47
f 47/47/47 45/45/45 48/48/48
mtllib ./100001.mtl
g Cube (1)
v -28.6483 -5 19.61882
v 21.35145 -5 19.46118
v -28.6483 5 19.61882
v 21.35145 5 19.46118
v -28.65145 5 18.61882
v 21.3483 5 18.46118
v -28.65145 -5 18.61882
v 21.3483 -5 18.46118
v -28.6483 5 19.61882
v 21.35145 5 19.46118
v -28.65145 5 18.61882
v 21.3483 5 18.46118
v -28.65145 -5 18.61882
v -28.6483 -5 19.61882
v 21.35145 -5 19.46118
v 21.3483 -5 18.46118
v 21.35145 -5 19.46118
v 21.35145 5 19.46118
v 21.3483 5 18.46118
v 21.3483 -5 18.46118
v -28.65145 -5 18.61882
v -28.65145 5 18.61882
v -28.6483 5 19.61882
v -28.6483 -5 19.61882

vn 0.003152782 0 0.9999951
vn 0.003152782 0 0.9999951
vn 0.003152782 0 0.9999951
vn 0.003152782 0 0.9999951
vn 0 1 0
vn 0 1 0
vn -0.003152782 0 -0.9999951
vn -0.003152782 0 -0.9999951
vn 0 1 0
vn 0 1 0
vn -0.003152782 0 -0.9999951
vn -0.003152782 0 -0.9999951
vn 0 -1 0
vn 0 -1 0
vn 0 -1 0
vn 0 -1 0
vn 0.9999951 0 -0.003152782
vn 0.9999951 0 -0.003152782
vn 0.9999951 0 -0.003152782
vn 0.9999951 0 -0.003152782
vn -0.9999951 0 0.003152782
vn -0.9999951 0 0.003152782
vn -0.9999951 0 0.003152782
vn -0.9999951 0 0.003152782

vt 0 0
vt 1 0
vt 0 1
vt 1 1
vt 0 1
vt 1 1
vt 0 1
vt 1 1
vt 0 0
vt 1 0
vt 0 0
vt 1 0
vt 0 0
vt 0 1
vt 1 1
vt 1 0
vt 0 0
vt 0 1
vt 1 1
vt 1 0
vt 0 0
vt 0 1
vt 1 1
vt 1 0

usemtl Default-Material
usemap Default-Material
f 51/51/51 49/49/49 52/52/52
f 52/52/52 49/49/49 50/50/50
f 53/53/53 57/57/57 54/54/54
f 54/54/54 57/57/57 58/58/58
f 55/55/55 59/59/59 56/56/56
f 56/56/56 59/59/59 60/60/60
f 62/62/62 61/61/61 63/63/63
f 63/63/63 61/61/61 64/64/64
f 66/66/66 65/65/65 67/67/67
f 67/67/67 65/65/65 68/68/68
f 70/70/70 69/69/69 71/71/71
f 71/71/71 69/69/69 72/72/72
mtllib ./100001.mtl
g Plane
v -50 -1.110223E-15 50
v -40 -1.110223E-15 50
v -30 -1.110223E-15 50
v -20 -1.110223E-15 50
v -9.999999 -1.110223E-15 50
v 0 -1.110223E-15 50
v 10 -1.110223E-15 50
v 20 -1.110223E-15 50
v 30 -1.110223E-15 50
v 40 -1.110223E-15 50
v 50 -1.110223E-15 50
v -50 -8.881784E-16 40
v -40 -8.881784E-16 40
v -30 -8.881784E-16 40
v -20 -8.881784E-16 40
v -9.999999 -8.881784E-16 40
v 0 -8.881784E-16 40
v 10 -8.881784E-16 40
v 20 -8.881784E-16 40
v 30 -8.881784E-16 40
v 40 -8.881784E-16 40
v 50 -8.881784E-16 40
v -50 -6.661338E-16 30
v -40 -6.661338E-16 30
v -30 -6.661338E-16 30
v -20 -6.661338E-16 30
v -9.999999 -6.661338E-16 30
v 0 -6.661338E-16 30
v 10 -6.661338E-16 30
v 20 -6.661338E-16 30
v 30 -6.661338E-16 30
v 40 -6.661338E-16 30
v 50 -6.661338E-16 30
v -50 -4.440892E-16 20
v -40 -4.440892E-16 20
v -30 -4.440892E-16 20
v -20 -4.440892E-16 20
v -9.999999 -4.440892E-16 20
v 0 -4.440892E-16 20
v 10 -4.440892E-16 20
v 20 -4.440892E-16 20
v 30 -4.440892E-16 20
v 40 -4.440892E-16 20
v 50 -4.440892E-16 20
v -50 -2.220446E-16 9.999999
v -40 -2.220446E-16 9.999999
v -30 -2.220446E-16 9.999999
v -20 -2.220446E-16 9.999999
v -9.999999 -2.220446E-16 9.999999
v 0 -2.220446E-16 9.999999
v 10 -2.220446E-16 9.999999
v 20 -2.220446E-16 9.999999
v 30 -2.220446E-16 9.999999
v 40 -2.220446E-16 9.999999
v 50 -2.220446E-16 9.999999
v -50 0 0
v -40 0 0
v -30 0 0
v -20 0 0
v -9.999999 0 0
v 0 0 0
v 10 0 0
v 20 0 0
v 30 0 0
v 40 0 0
v 50 0 0
v -50 2.220447E-16 -10
v -40 2.220447E-16 -10
v -30 2.220447E-16 -10
v -20 2.220447E-16 -10
v -9.999999 2.220447E-16 -10
v 0 2.220447E-16 -10
v 10 2.220447E-16 -10
v 20 2.220447E-16 -10
v 30 2.220447E-16 -10
v 40 2.220447E-16 -10
v 50 2.220447E-16 -10
v -50 4.440892E-16 -20
v -40 4.440892E-16 -20
v -30 4.440892E-16 -20
v -20 4.440892E-16 -20
v -9.999999 4.440892E-16 -20
v 0 4.440892E-16 -20
v 10 4.440892E-16 -20
v 20 4.440892E-16 -20
v 30 4.440892E-16 -20
v 40 4.440892E-16 -20
v 50 4.440892E-16 -20
v -50 6.661338E-16 -30
v -40 6.661338E-16 -30
v -30 6.661338E-16 -30
v -20 6.661338E-16 -30
v -9.999999 6.661338E-16 -30
v 0 6.661338E-16 -30
v 10 6.661338E-16 -30
v 20 6.661338E-16 -30
v 30 6.661338E-16 -30
v 40 6.661338E-16 -30
v 50 6.661338E-16 -30
v -50 8.881785E-16 -40
v -40 8.881785E-16 -40
v -30 8.881785E-16 -40
v -20 8.881785E-16 -40
v -9.999999 8.881785E-16 -40
v 0 8.881785E-16 -40
v 10 8.881785E-16 -40
v 20 8.881785E-16 -40
v 30 8.881785E-16 -40
v 40 8.881785E-16 -40
v 50 8.881785E-16 -40
v -50 1.110223E-15 -50
v -40 1.110223E-15 -50
v -30 1.110223E-15 -50
v -20 1.110223E-15 -50
v -9.999999 1.110223E-15 -50
v 0 1.110223E-15 -50
v 10 1.110223E-15 -50
v 20 1.110223E-15 -50
v 30 1.110223E-15 -50
v 40 1.110223E-15 -50
v 50 1.110223E-15 -50

vn 0 1 0
vn 0 1 0
vn 0 1 0
vn 0 1 0
vn 0 1 0
vn 0 1 0
vn 0 1 0
vn 0 1 0
vn 0 1 0
vn 0 1 0
vn 0 1 0
vn 0 1 0
vn 0 1 0
vn 0 1 0
vn 0 1 0
vn 0 1 0
vn 0 1 0
vn 0 1 0
vn 0 1 0
vn 0 1 0
vn 0 1 0
vn 0 1 0
vn 0 1 0
vn 0 1 0
vn 0 1 0
vn 0 1 0
vn 0 1 0
vn 0 1 0
vn 0 1 0
vn 0 1 0
vn 0 1 0
vn 0 1 0
vn 0 1 0
vn 0 1 0
vn 0 1 0
vn 0 1 0
vn 0 1 0
vn 0 1 0
vn 0 1 0
vn 0 1 0
vn 0 1 0
vn 0 1 0
vn 0 1 0
vn 0 1 0
vn 0 1 0
vn 0 1 0
vn 0 1 0
vn 0 1 0
vn 0 1 0
vn 0 1 0
vn 0 1 0
vn 0 1 0
vn 0 1 0
vn 0 1 0
vn 0 1 0
vn 0 1 0
vn 0 1 0
vn 0 1 0
vn 0 1 0
vn 0 1 0
vn 0 1 0
vn 0 1 0
vn 0 1 0
vn 0 1 0
vn 0 1 0
vn 0 1 0
vn 0 1 0
vn 0 1 0
vn 0 1 0
vn 0 1 0
vn 0 1 0
vn 0 1 0
vn 0 1 0
vn 0 1 0
vn 0 1 0
vn 0 1 0
vn 0 1 0
vn 0 1 0
vn 0 1 0
vn 0 1 0
vn 0 1 0
vn 0 1 0
vn 0 1 0
vn 0 1 0
vn 0 1 0
vn 0 1 0
vn 0 1 0
vn 0 1 0
vn 0 1 0
vn 0 1 0
vn 0 1 0
vn 0 1 0
vn 0 1 0
vn 0 1 0
vn 0 1 0
vn 0 1 0
vn 0 1 0
vn 0 1 0
vn 0 1 0
vn 0 1 0
vn 0 1 0
vn 0 1 0
vn 0 1 0
vn 0 1 0
vn 0 1 0
vn 0 1 0
vn 0 1 0
vn 0 1 0
vn 0 1 0
vn 0 1 0
vn 0 1 0
vn 0 1 0
vn 0 1 0
vn 0 1 0
vn 0 1 0
vn 0 1 0
vn 0 1 0
vn 0 1 0
vn 0 1 0
vn 0 1 0
vn 0 1 0

vt 0 0
vt 0.1 0
vt 0.2 0
vt 0.3 0
vt 0.4 0
vt 0.5 0
vt 0.6 0
vt 0.7 0
vt 0.8 0
vt 0.9 0
vt 1 0
vt 0 0.1
vt 0.1 0.1
vt 0.2 0.1
vt 0.3 0.1
vt 0.4 0.1
vt 0.5 0.1
vt 0.6 0.1
vt 0.7 0.1
vt 0.8 0.1
vt 0.9 0.1
vt 1 0.1
vt 0 0.2
vt 0.1 0.2
vt 0.2 0.2
vt 0.3 0.2
vt 0.4 0.2
vt 0.5 0.2
vt 0.6 0.2
vt 0.7 0.2
vt 0.8 0.2
vt 0.9 0.2
vt 1 0.2
vt 0 0.3
vt 0.1 0.3
vt 0.2 0.3
vt 0.3 0.3
vt 0.4 0.3
vt 0.5 0.3
vt 0.6 0.3
vt 0.7 0.3
vt 0.8 0.3
vt 0.9 0.3
vt 1 0.3
vt 0 0.4
vt 0.1 0.4
vt 0.2 0.4
vt 0.3 0.4
vt 0.4 0.4
vt 0.5 0.4
vt 0.6 0.4
vt 0.7 0.4
vt 0.8 0.4
vt 0.9 0.4
vt 1 0.4
vt 0 0.5
vt 0.1 0.5
vt 0.2 0.5
vt 0.3 0.5
vt 0.4 0.5
vt 0.5 0.5
vt 0.6 0.5
vt 0.7 0.5
vt 0.8 0.5
vt 0.9 0.5
vt 1 0.5
vt 0 0.6
vt 0.1 0.6
vt 0.2 0.6
vt 0.3 0.6
vt 0.4 0.6
vt 0.5 0.6
vt 0.6 0.6
vt 0.7 0.6
vt 0.8 0.6
vt 0.9 0.6
vt 1 0.6
vt 0 0.7
vt 0.1 0.7
vt 0.2 0.7
vt 0.3 0.7
vt 0.4 0.7
vt 0.5 0.7
vt 0.6 0.7
vt 0.7 0.7
vt 0.8 0.7
vt 0.9 0.7
vt 1 0.7
vt 0 0.8
vt 0.1 0.8
vt 0.2 0.8
vt 0.3 0.8
vt 0.4 0.8
vt 0.5 0.8
vt 0.6 0.8
vt 0.7 0.8
vt 0.8 0.8
vt 0.9 0.8
vt 1 0.8
vt 0 0.9
vt 0.1 0.9
vt 0.2 0.9
vt 0.3 0.9
vt 0.4 0.9
vt 0.5 0.9
vt 0.6 0.9
vt 0.7 0.9
vt 0.8 0.9
vt 0.9 0.9
vt 1 0.9
vt 0 1
vt 0.1 1
vt 0.2 1
vt 0.3 1
vt 0.4 1
vt 0.5 1
vt 0.6 1
vt 0.7 1
vt 0.8 1
vt 0.9 1
vt 1 1

usemtl Default-Material
usemap Default-Material
f 94/94/94 82/82/82 83/83/83
f 93/93/93 82/82/82 94/94/94
f 93/93/93 81/81/81 82/82/82
f 105/105/105 93/93/93 94/94/94
f 92/92/92 81/81/81 93/93/93
f 92/92/92 80/80/80 81/81/81
f 104/104/104 93/93/93 105/105/105
f 104/104/104 92/92/92 93/93/93
f 116/116/116 104/104/104 105/105/105
f 91/91/91 80/80/80 92/92/92
f 91/91/91 79/79/79 80/80/80
f 103/103/103 92/92/92 104/104/104
f 103/103/103 91/91/91 92/92/92
f 115/115/115 104/104/104 116/116/116
f 115/115/115 103/103/103 104/104/104
f 127/127/127 115/115/115 116/116/116
f 90/90/90 79/79/79 91/91/91
f 90/90/90 78/78/78 79/79/79
f 102/102/102 91/91/91 103/103/103
f 102/102/102 90/90/90 91/91/91
f 114/114/114 103/103/103 115/115/115
f 114/114/114 102/102/102 103/103/103
f 126/126/126 115/115/115 127/127/127
f 126/126/126 114/114/114 115/115/115
f 138/138/138 126/126/126 127/127/127
f 89/89/89 78/78/78 90/90/90
f 89/89/89 77/77/77 78/78/78
f 101/101/101 90/90/90 102/102/102
f 101/101/101 89/89/89 90/90/90
f 113/113/113 102/102/102 114/114/114
f 113/113/113 101/101/101 102/102/102
f 125/125/125 114/114/114 126/126/126
f 125/125/125 113/113/113 114/114/114
f 137/137/137 126/126/126 138/138/138
f 137/137/137 125/125/125 126/126/126
f 149/149/149 137/137/137 138/138/138
f 88/88/88 77/77/77 89/89/89
f 88/88/88 76/76/76 77/77/77
f 100/100/100 89/89/89 101/101/101
f 100/100/100 88/88/88 89/89/89
f 112/112/112 101/101/101 113/113/113
f 112/112/112 100/100/100 101/101/101
f 124/124/124 113/113/113 125/125/125
f 124/124/124 112/112/112 113/113/113
f 136/136/136 125/125/125 137/137/137
f 136/136/136 124/124/124 125/125/125
f 148/148/148 137/137/137 149/149/149
f 148/148/148 136/136/136 137/137/137
f 160/160/160 148/148/148 149/149/149
f 87/87/87 76/76/76 88/88/88
f 87/87/87 75/75/75 76/76/76
f 99/99/99 88/88/88 100/100/100
f 99/99/99 87/87/87 88/88/88
f 111/111/111 100/100/100 112/112/112
f 111/111/111 99/99/99 100/100/100
f 123/123/123 112/112/112 124/124/124
f 123/123/123 111/111/111 112/112/112
f 135/135/135 124/124/124 136/136/136
f 135/135/135 123/123/123 124/124/124
f 147/147/147 136/136/136 148/148/148
f 147/147/147 135/135/135 136/136/136
f 159/159/159 148/148/148 160/160/160
f 159/159/159 147/147/147 148/148/148
f 171/171/171 159/159/159 160/160/160
f 170/170/170 159/159/159 171/171/171
f 182/182/182 170/170/170 171/171/171
f 158/158/158 147/147/147 159/159/159
f 170/170/170 158/158/158 159/159/159
f 146/146/146 135/135/135 147/147/147
f 158/158/158 146/146/146 147/147/147
f 134/134/134 123/123/123 135/135/135
f 146/146/146 134/134/134 135/135/135
f 122/122/122 111/111/111 123/123/123
f 134/134/134 122/122/122 123/123/123
f 181/181/181 170/170/170 182/182/182
f 193/193/193 181/181/181 182/182/182
f 192/192/192 181/181/181 193/193/193
f 169/169/169 158/158/158 170/170/170
f 181/181/181 169/169/169 170/170/170
f 192/192/192 180/180/180 181/181/181
f 180/180/180 169/169/169 181/181/181
f 191/191/191 180/180/180 192/192/192
f 157/157/157 146/146/146 158/158/158
f 169/169/169 157/157/157 158/158/158
f 145/145/145 134/134/134 146/146/146
f 157/157/157 145/145/145 146/146/146
f 180/180/180 168/168/168 169/169/169
f 168/168/168 157/157/157 169/169/169
f 191/191/191 179/179/179 180/180/180
f 179/179/179 168/168/168 180/180/180
f 190/190/190 179/179/179 191/191/191
f 168/168/168 156/156/156 157/157/157
f 156/156/156 145/145/145 157/157/157
f 145/145/145 133/133/133 134/134/134
f 133/133/133 122/122/122 134/134/134
f 179/179/179 167/167/167 168/168/168
f 167/167/167 156/156/156 168/168/168
f 190/190/190 178/178/178 179/179/179
f 178/178/178 167/167/167 179/179/179
f 189/189/189 178/178/178 190/190/190
f 156/156/156 144/144/144 145/145/145
f 144/144/144 133/133/133 145/145/145
f 167/167/167 155/155/155 156/156/156
f 155/155/155 144/144/144 156/156/156
f 178/178/178 166/166/166 167/167/167
f 166/166/166 155/155/155 167/167/167
f 189/189/189 177/177/177 178/178/178
f 177/177/177 166/166/166 178/178/178
f 188/188/188 177/177/177 189/189/189
f 188/188/188 176/176/176 177/177/177
f 187/187/187 176/176/176 188/188/188
f 177/177/177 165/165/165 166/166/166
f 176/176/176 165/165/165 177/177/177
f 166/166/166 154/154/154 155/155/155
f 165/165/165 154/154/154 166/166/166
f 155/155/155 143/143/143 144/144/144
f 154/154/154 143/143/143 155/155/155
f 144/144/144 132/132/132 133/133/133
f 143/143/143 132/132/132 144/144/144
f 187/187/187 175/175/175 176/176/176
f 186/186/186 175/175/175 187/187/187
f 176/176/176 164/164/164 165/165/165
f 175/175/175 164/164/164 176/176/176
f 165/165/165 153/153/153 154/154/154
f 164/164/164 153/153/153 165/165/165
f 154/154/154 142/142/142 143/143/143
f 153/153/153 142/142/142 154/154/154
f 186/186/186 174/174/174 175/175/175
f 185/185/185 174/174/174 186/186/186
f 175/175/175 163/163/163 164/164/164
f 174/174/174 163/163/163 175/175/175
f 164/164/164 152/152/152 153/153/153
f 163/163/163 152/152/152 164/164/164
f 185/185/185 173/173/173 174/174/174
f 184/184/184 173/173/173 185/185/185
f 174/174/174 162/162/162 163/163/163
f 173/173/173 162/162/162 174/174/174
f 184/184/184 172/172/172 173/173/173
f 183/183/183 172/172/172 184/184/184
f 172/172/172 161/161/161 173/173/173
f 173/173/173 161/161/161 162/162/162
f 161/161/161 150/150/150 162/162/162
f 162/162/162 151/151/151 163/163/163
f 162/162/162 150/150/150 151/151/151
f 163/163/163 151/151/151 152/152/152
f 150/150/150 139/139/139 151/151/151
f 151/151/151 139/139/139 140/140/140
f 151/151/151 140/140/140 152/152/152
f 139/139/139 128/128/128 140/140/140
f 152/152/152 140/140/140 141/141/141
f 152/152/152 141/141/141 153/153/153
f 153/153/153 141/141/141 142/142/142
f 140/140/140 128/128/128 129/129/129
f 140/140/140 129/129/129 141/141/141
f 128/128/128 117/117/117 129/129/129
f 141/141/141 130/130/130 142/142/142
f 141/141/141 129/129/129 130/130/130
f 129/129/129 117/117/117 118/118/118
f 129/129/129 118/118/118 130/130/130
f 117/117/117 106/106/106 118/118/118
f 142/142/142 130/130/130 131/131/131
f 142/142/142 131/131/131 143/143/143
f 143/143/143 131/131/131 132/132/132
f 118/118/118 106/106/106 107/107/107
f 106/106/106 95/95/95 107/107/107
f 130/130/130 118/118/118 119/119/119
f 130/130/130 119/119/119 131/131/131
f 118/118/118 107/107/107 119/119/119
f 131/131/131 120/120/120 132/132/132
f 131/131/131 119/119/119 120/120/120
f 107/107/107 95/95/95 96/96/96
f 95/95/95 84/84/84 96/96/96
f 119/119/119 107/107/107 108/108/108
f 119/119/119 108/108/108 120/120/120
f 107/107/107 96/96/96 108/108/108
f 132/132/132 120/120/120 121/121/121
f 132/132/132 121/121/121 133/133/133
f 133/133/133 121/121/121 122/122/122
f 96/96/96 84/84/84 85/85/85
f 84/84/84 73/73/73 85/85/85
f 85/85/85 73/73/73 74/74/74
f 108/108/108 96/96/96 97/97/97
f 96/96/96 85/85/85 97/97/97
f 120/120/120 108/108/108 109/109/109
f 120/120/120 109/109/109 121/121/121
f 108/108/108 97/97/97 109/109/109
f 121/121/121 110/110/110 122/122/122
f 121/121/121 109/109/109 110/110/110
f 122/122/122 110/110/110 111/111/111
f 110/110/110 99/99/99 111/111/111
f 85/85/85 74/74/74 86/86/86
f 97/97/97 85/85/85 86/86/86
f 86/86/86 74/74/74 75/75/75
f 86/86/86 75/75/75 87/87/87
f 109/109/109 97/97/97 98/98/98
f 109/109/109 98/98/98 110/110/110
f 110/110/110 98/98/98 99/99/99
f 97/97/97 86/86/86 98/98/98
f 98/98/98 86/86/86 87/87/87
f 98/98/98 87/87/87 99/99/99
mtllib ./100001.mtl
g Cube
v -28.32179 -5 -19.18081
v 21.64577 -5 -17.37984
v -28.32179 5 -19.18081
v 21.64577 5 -17.37984
v -28.28577 5 -20.18017
v 21.68179 5 -18.37919
v -28.28577 -5 -20.18017
v 21.68179 -5 -18.37919
v -28.32179 5 -19.18081
v 21.64577 5 -17.37984
v -28.28577 5 -20.18017
v 21.68179 5 -18.37919
v -28.28577 -5 -20.18017
v -28.32179 -5 -19.18081
v 21.64577 -5 -17.37984
v 21.68179 -5 -18.37919
v 21.64577 -5 -17.37984
v 21.64577 5 -17.37984
v 21.68179 5 -18.37919
v 21.68179 -5 -18.37919
v -28.28577 -5 -20.18017
v -28.28577 5 -20.18017
v -28.32179 5 -19.18081
v -28.32179 -5 -19.18081

vn -0.03601959 0 0.9993511
vn -0.03601959 0 0.9993511
vn -0.03601959 0 0.9993511
vn -0.03601959 0 0.9993511
vn 0 1 0
vn 0 1 0
vn 0.03601959 0 -0.9993511
vn 0.03601959 0 -0.9993511
vn 0 1 0
vn 0 1 0
vn 0.03601959 0 -0.9993511
vn 0.03601959 0 -0.9993511
vn 0 -1 0
vn 0 -1 0
vn 0 -1 0
vn 0 -1 0
vn 0.9993511 0 0.03601959
vn 0.9993511 0 0.03601959
vn 0.9993511 0 0.03601959
vn 0.9993511 0 0.03601959
vn -0.9993511 0 -0.03601959
vn -0.9993511 0 -0.03601959
vn -0.9993511 0 -0.03601959
vn -0.9993511 0 -0.03601959

vt 0 0
vt 1 0
vt 0 1
vt 1 1
vt 0 1
vt 1 1
vt 0 1
vt 1 1
vt 0 0
vt 1 0
vt 0 0
vt 1 0
vt 0 0
vt 0 1
vt 1 1
vt 1 0
vt 0 0
vt 0 1
vt 1 1
vt 1 0
vt 0 0
vt 0 1
vt 1 1
vt 1 0

usemtl Default-Material
usemap Default-Material
f 196/196/196 194/194/194 197/197/197
f 197/197/197 194/194/194 195/195/195
f 198/198/198 202/202/202 199/199/199
f 199/199/199 202/202/202 203/203/203
f 200/200/200 204/204/204 201/201/201
f 201/201/201 204/204/204 205/205/205
f 207/207/207 206/206/206 208/208/208
f 208/208/208 206/206/206 209/209/209
f 211/211/211 210/210/210 212/212/212
f 212/212/212 210/210/210 213/213/213
f 215/215/215 214/214/214 216/216/216
f 216/216/216 214/214/214 217/217/217
