# Blender v2.80 (sub 75) OBJ File: 'Crystal4Houdini.blend'
# www.blender.org
g Shard02
v 0.211579 0.059728 -0.009655
v 0.202214 0.075464 -0.030129
v 0.143074 0.123996 -0.042136
v 0.090608 0.167700 -0.062630
v 0.061074 0.190503 -0.069106
v 0.004684 0.211290 -0.097134
v 0.032500 0.179484 0.001372
v -0.013270 0.169168 0.078283
v -0.052138 0.166553 0.129827
v -0.107584 0.165418 0.201443
v -0.099485 0.134306 0.248634
v -0.093872 0.113319 0.260167
v -0.010239 0.104547 0.197777
v 0.040038 0.078525 0.176999
v -0.046855 0.066756 0.256409
v -0.019460 0.040219 0.253514
v 0.092529 0.076387 0.112784
v 0.136291 0.073747 0.065402
v 0.177242 0.069436 0.024318
v -0.067979 0.233716 -0.062271
v -0.116384 0.245903 -0.039352
v -0.124978 0.219204 0.056450
v -0.021838 0.170343 -0.146328
v -0.057429 0.098401 -0.224509
v -0.117196 0.149664 -0.157274
v -0.164184 0.191799 -0.100388
v -0.174455 0.173570 -0.080497
v 0.059434 0.118661 -0.119808
v 0.031976 0.071349 -0.183436
v 0.014591 0.008476 -0.258612
v 0.173205 0.027557 -0.093606
v 0.146064 -0.010378 -0.152045
v 0.127593 -0.038815 -0.192116
v 0.074756 -0.016364 -0.226120
v -0.183338 0.105790 -0.052082
v -0.192345 0.046255 -0.031088
v -0.202000 -0.016390 -0.014179
v -0.169554 0.012468 0.075025
v -0.134293 0.050457 0.166071
v -0.109139 0.073695 0.227254
v -0.066054 0.035199 0.227161
v 0.013428 -0.034102 0.226416
v 0.041629 -0.094643 0.200054
v 0.082252 -0.153465 0.164604
v 0.136672 -0.209981 0.117747
v 0.161978 -0.235913 0.094818
v 0.191519 -0.249718 0.064031
v 0.217002 -0.184477 0.011625
v 0.177923 -0.134190 -0.075487
v 0.147644 -0.085686 -0.144651
v -0.064632 0.021312 -0.206391
v -0.088948 -0.052753 -0.175746
v -0.105500 -0.143368 -0.147215
v -0.050075 -0.065794 -0.201428
v -0.115098 -0.172163 -0.118870
v -0.143310 -0.124967 -0.086755
v -0.174186 -0.067917 -0.052184
v -0.129546 0.005696 -0.118121
v 0.150291 -0.253395 0.054485
v 0.087614 -0.242363 0.011970
v 0.017888 -0.227449 -0.031883
v -0.049049 -0.202350 -0.076765
v -0.077807 -0.120345 0.010487
v -0.118092 -0.049413 0.055413
v 0.023544 -0.173826 0.061984
v -0.028643 -0.094398 0.111840
v -0.049232 -0.045468 0.144285
v -0.027534 -0.153530 0.028824
v -0.067980 -0.079955 0.079162
v -0.097905 -0.018711 0.120126
v 0.097485 -0.075901 -0.167209
v 0.054801 -0.123041 -0.127311
v 0.006461 -0.178633 -0.086348
v 0.135092 -0.167795 -0.058241
v 0.100058 -0.214581 -0.018529
vt 0.782944 0.180573
vt 0.796182 0.185686
vt 0.794909 0.154779
vt 0.782541 0.121384
vt 0.755500 0.140721
vt 0.876642 0.105600
vt 0.867480 0.118060
vt 0.879068 0.111777
vt 0.860682 0.093389
vt 0.853163 0.127159
vt 0.838043 0.072829
vt 0.822482 0.089332
vt 0.846328 0.079437
vt 0.836858 0.138465
vt 0.800322 0.108193
vt 0.815482 0.154598
vt 0.756730 0.162096
vt 0.760249 0.170467
vt 0.763891 0.083280
vt 0.800676 0.053129
vt 0.781561 0.050803
vt 0.827107 0.057744
vt 0.835851 0.037673
vt 0.817750 0.007198
vt 0.786597 0.015839
vt 0.858097 0.003619
vt 0.711591 0.680975
vt 0.738520 0.629755
vt 0.701402 0.644305
vt 0.700846 0.680796
vt 0.876908 0.036698
vt 0.910508 0.074264
vt 0.916282 0.037228
vt 0.860348 0.059258
vt 0.893175 0.090804
vt 0.904092 0.011819
vt 0.923831 0.061111
vt 0.735608 0.691667
vt 0.784650 0.688502
vt 0.819912 0.617940
vt 0.822494 0.642100
vt 0.828073 0.622911
vt 0.806135 0.660834
vt 0.753545 0.701685
vt 0.768519 0.711086
vt 0.797546 0.616240
vt 0.848308 0.639377
vt 0.839174 0.655087
vt 0.859259 0.649922
vt 0.869780 0.682221
vt 0.850736 0.204329
vt 0.825962 0.197459
vt 0.878961 0.206673
vt 0.911363 0.202901
vt 0.926833 0.200073
vt 0.936645 0.159656
vt 0.941219 0.191751
vt 0.935508 0.084811
vt 0.941219 0.118475
vt 0.745200 0.761076
vt 0.743905 0.775833
vt 0.769890 0.763015
vt 0.717998 0.762307
vt 0.709515 0.797566
vt 0.689275 0.754303
vt 0.775396 0.745949
vt 0.740651 0.733536
vt 0.771370 0.728395
vt 0.777787 0.759302
vt 0.691127 0.713142
vt 0.872612 0.812769
vt 0.877237 0.795347
vt 0.861266 0.801564
vt 0.803878 0.736547
vt 0.799456 0.709749
vt 0.793684 0.767782
vt 0.880440 0.741353
vt 0.838141 0.754490
vt 0.880440 0.778369
vt 0.833987 0.697010
vt 0.875879 0.709977
vt 0.835137 0.718672
vt 0.837402 0.789966
vt 0.818973 0.747025
vt 0.814117 0.777919
vt 0.817753 0.716792
vt 0.814021 0.690986
vt 0.778129 0.805352
vt 0.793664 0.784421
vt 0.760506 0.824478
vt 0.727699 0.819428
vt 0.745800 0.838684
vt 0.773087 0.841583
vt 0.808697 0.843266
vt 0.814350 0.822126
vt 0.827624 0.801136
vt 0.851716 0.840665
vn -0.1894 0.2406 0.9520
vn -0.0912 0.1506 0.9844
vn -0.0529 0.4822 0.8745
vn -0.2440 0.7730 0.5856
vn -0.4041 0.5913 0.6979
vn 0.9180 0.3685 -0.1464
vn 0.9104 0.3860 0.1489
vn 0.9575 0.2858 -0.0377
vn 0.7145 0.6637 -0.2213
vn 0.7881 0.4601 0.4089
vn 0.2662 0.9075 -0.3248
vn 0.1495 0.9886 0.0196
vn 0.4294 0.8466 -0.3144
vn 0.5350 0.4797 0.6954
vn -0.0885 0.9056 0.4148
vn 0.1887 0.4086 0.8930
vn -0.3540 0.4534 0.8180
vn -0.3332 0.3708 0.8669
vn -0.5016 0.8368 0.2193
vn -0.2797 0.9281 -0.2456
vn -0.4367 0.8889 -0.1387
vn 0.0019 0.9088 -0.4171
vn -0.1151 0.7520 -0.6490
vn -0.5018 0.5915 -0.6311
vn -0.6242 0.6886 -0.3691
vn -0.2549 0.3894 -0.8851
vn -0.7035 0.6437 -0.3013
vn 0.1407 0.3730 -0.9171
vn 0.6790 -0.0335 -0.7333
vn 0.2916 -0.0664 -0.9542
vn 0.3043 0.6687 -0.6784
vn 0.8582 0.1519 -0.4904
vn 0.0312 0.0345 -0.9989
vn 0.5263 -0.1644 -0.8343
vn -0.8578 0.4594 -0.2305
vn -0.9190 0.0559 0.3903
vn -0.4583 0.2572 0.8508
vn -0.6479 0.2096 0.7323
vn -0.9634 0.2215 -0.1511
vn -0.9946 -0.0814 -0.0646
vn -0.3181 0.1189 0.9406
vn 0.0307 -0.1548 0.9875
vn 0.1500 -0.4203 0.8949
vn 0.3090 -0.6404 0.7032
vn 0.4657 -0.7613 0.4512
vn 0.5146 -0.7871 0.3400
vn 0.7599 -0.6491 0.0348
vn 0.5877 -0.7840 0.1998
vn 0.6401 -0.3909 -0.6614
vn 0.7415 -0.5771 -0.3421
vn -0.4770 -0.2443 -0.8443
vn -0.2619 -0.3023 -0.9165
vn -0.4813 -0.6031 -0.6361
vn -0.3440 0.0924 -0.9344
vn -0.7154 -0.5772 -0.3936
vn -0.7591 0.0321 -0.6502
vn -0.9058 -0.3382 -0.2551
vn -0.5093 -0.7108 -0.4851
vn 0.4646 -0.8681 0.1745
vn -0.5827 -0.8082 0.0854
vn -0.8555 -0.3479 0.3835
vn -0.2549 -0.9057 -0.3388
vn 0.0611 -0.9374 0.3428
vn -0.3653 -0.2935 0.8834
vn -0.2572 -0.6269 0.7354
vn 0.2971 -0.9540 0.0402
vn -0.2366 -0.9525 0.1917
vn 0.0348 -0.9895 -0.1404
vn -0.5620 -0.5890 0.5807
vn -0.6583 -0.1347 0.7406
vn 0.2550 -0.6698 -0.6974
vn 0.0026 -0.8933 -0.4494
vn 0.4301 -0.3821 -0.8179
vn 0.5746 -0.7672 -0.2850
vn 0.3929 -0.9137 -0.1039
s 1
f 15/1/1 16/2/2 13/3/3
f 13/3/3 9/4/4 10/5/5
f 2/6/6 19/7/7 1/8/8
f 2/6/6 3/9/9 19/7/7
f 19/7/7 3/9/9 18/10/10
f 5/11/11 7/12/12 4/13/13
f 4/13/13 7/12/12 3/9/9
f 17/14/14 8/15/15 14/16/16
f 14/16/16 8/15/15 13/3/3
f 8/15/15 9/4/4 13/3/3
f 3/9/9 7/12/12 18/10/10
f 18/10/10 7/12/12 17/14/14
f 8/15/15 17/14/14 7/12/12
f 13/3/3 10/5/5 11/17/17
f 15/1/1 13/3/3 12/18/18
f 12/18/18 13/3/3 11/17/17
f 13/3/3 16/2/2 14/16/16
f 22/19/19 20/20/20 21/21/21
f 20/20/20 7/12/12 6/22/22
f 6/22/22 7/12/12 5/11/11
f 7/12/12 20/20/20 8/15/15
f 20/20/20 22/19/19 8/15/15
f 8/15/15 22/19/19 9/4/4
f 9/4/4 22/19/19 10/5/5
f 20/20/20 23/23/23 25/24/24
f 23/23/23 20/20/20 6/22/22
f 20/20/20 26/25/25 21/21/21
f 26/25/25 20/20/20 25/24/24
f 25/24/24 23/23/23 24/26/26
f 27/27/27 22/28/19 21/29/21
f 27/27/27 21/29/21 26/30/25
f 29/31/28 32/32/29 34/33/30
f 32/32/29 28/34/31 31/35/32
f 31/35/32 3/9/9 2/6/6
f 28/34/31 4/13/13 3/9/9
f 31/35/32 28/34/31 3/9/9
f 28/34/31 32/32/29 29/31/28
f 29/31/28 34/33/30 30/36/33
f 34/33/30 32/32/29 33/37/34
f 29/31/28 23/23/23 28/34/31
f 28/34/31 5/11/11 4/13/13
f 5/11/11 28/34/31 6/22/22
f 6/22/22 28/34/31 23/23/23
f 23/23/23 29/31/28 24/26/26
f 24/26/26 29/31/28 30/36/33
f 22/28/19 35/38/35 38/39/36
f 11/40/17 40/41/37 12/42/18
f 39/43/38 22/28/19 38/39/36
f 38/39/36 36/44/39 37/45/40
f 11/40/17 10/46/5 40/41/37
f 40/41/37 10/46/5 39/43/38
f 22/28/19 39/43/38 10/46/5
f 35/38/35 22/28/19 27/27/27
f 38/39/36 35/38/35 36/44/39
f 40/41/37 15/47/1 12/42/18
f 15/47/1 41/48/41 16/49/2
f 16/49/2 41/48/41 42/50/42
f 41/48/41 15/47/1 40/41/37
f 43/51/43 17/14/14 42/52/42
f 42/52/42 14/16/16 16/2/2
f 14/16/16 42/52/42 17/14/14
f 17/14/14 44/53/44 18/10/10
f 43/51/43 44/53/44 17/14/14
f 18/10/10 45/54/45 19/7/7
f 19/7/7 45/54/45 1/8/8
f 18/10/10 44/53/44 45/54/45
f 1/8/8 45/54/45 46/55/46
f 48/56/47 46/55/46 47/57/48
f 50/58/49 31/35/32 49/59/50
f 48/56/47 49/59/50 1/8/8
f 1/8/8 31/35/32 2/6/6
f 31/35/32 50/58/49 32/32/29
f 32/32/29 50/58/49 33/37/34
f 1/8/8 49/59/50 31/35/32
f 52/60/51 54/61/52 53/62/53
f 54/61/52 51/63/54 30/64/33
f 30/64/33 51/63/54 24/65/26
f 51/63/54 54/61/52 52/60/51
f 52/60/51 56/66/55 58/67/56
f 36/44/39 58/67/56 37/45/40
f 37/45/40 58/67/56 57/68/57
f 57/68/57 58/67/56 56/66/55
f 56/66/55 53/62/53 55/69/58
f 52/60/51 53/62/53 56/66/55
f 51/63/54 58/67/56 25/70/24
f 51/63/54 25/70/24 24/65/26
f 25/70/24 27/27/27 26/30/25
f 27/27/27 25/70/24 35/38/35
f 35/38/35 58/67/56 36/44/39
f 58/67/56 51/63/54 52/60/51
f 35/38/35 25/70/24 58/67/56
f 47/71/48 46/72/46 59/73/59
f 56/66/55 63/74/60 57/68/57
f 57/68/57 64/75/61 37/45/40
f 37/45/40 64/75/61 38/39/36
f 64/75/61 57/68/57 63/74/60
f 63/74/60 56/66/55 62/76/62
f 62/76/62 56/66/55 55/69/58
f 44/77/44 65/78/63 45/79/45
f 67/80/64 42/50/42 41/48/41
f 67/80/64 43/81/43 42/50/42
f 65/78/63 44/77/44 66/82/65
f 66/82/65 43/81/43 67/80/64
f 44/77/44 43/81/43 66/82/65
f 59/73/59 45/79/45 60/83/66
f 60/83/66 45/79/45 65/78/63
f 45/79/45 59/73/59 46/72/46
f 68/84/67 62/76/62 61/85/68
f 68/84/67 69/86/69 63/74/60
f 63/74/60 69/86/69 64/75/61
f 38/39/36 70/87/70 39/43/38
f 69/86/69 70/87/70 64/75/61
f 61/85/68 65/78/63 68/84/67
f 66/82/65 68/84/67 65/78/63
f 67/80/64 69/86/69 66/82/65
f 41/48/41 70/87/70 67/80/64
f 39/43/38 41/48/41 40/41/37
f 53/62/53 62/76/62 55/69/58
f 53/62/53 72/88/71 73/89/72
f 54/61/52 71/90/73 72/88/71
f 34/91/30 71/90/73 30/64/33
f 34/91/30 33/92/34 71/90/73
f 50/93/49 71/90/73 33/92/34
f 72/88/71 50/93/49 49/94/50
f 72/88/71 49/94/50 74/95/74
f 73/89/72 74/95/74 75/96/75
f 73/89/72 61/85/68 62/76/62
f 61/85/68 75/96/75 60/83/66
f 75/96/75 61/85/68 73/89/72
f 75/96/75 59/73/59 60/83/66
f 47/71/48 59/73/59 48/97/47
f 48/97/47 74/95/74 49/94/50
f 59/73/59 75/96/75 48/97/47
f 74/95/74 48/97/47 75/96/75
f 48/56/47 1/8/8 46/55/46
f 68/84/67 63/74/60 62/76/62
f 38/39/36 64/75/61 70/87/70
f 61/85/68 60/83/66 65/78/63
f 66/82/65 69/86/69 68/84/67
f 67/80/64 70/87/70 69/86/69
f 41/48/41 39/43/38 70/87/70
f 53/62/53 73/89/72 62/76/62
f 53/62/53 54/61/52 72/88/71
f 54/61/52 30/64/33 71/90/73
f 72/88/71 71/90/73 50/93/49
f 73/89/72 72/88/71 74/95/74
